<?xml version="1.0" standalone="no"?>
<!DOCTYPE svg PUBLIC "-//W3C//DTD SVG 20010904//EN"
 "http://www.w3.org/TR/2001/REC-SVG-20010904/DTD/svg10.dtd">
<svg version="1.0" xmlns="http://www.w3.org/2000/svg"
 width="1072.000000pt" height="60.000000pt" viewBox="0 0 1072.000000 60.000000"
 preserveAspectRatio="xMidYMid meet">

<g transform="translate(0.000000,60.000000) scale(0.100000,-0.100000)"
fill="#000000" stroke="none">
<path d="M4710 300 l0 -250 625 0 625 0 0 250 0 250 -625 0 -625 0 0 -250z
m150 120 c7 -50 15 -89 17 -87 3 3 33 162 33 175 0 1 23 2 50 2 l50 0 1 -157
c0 -87 3 -153 5 -147 3 7 15 76 27 155 l22 144 51 3 c61 3 54 17 81 -168 l18
-125 3 148 3 147 58 0 c45 0 66 -5 95 -25 l36 -25 -6 26 c-6 24 -5 25 37 22
l44 -3 16 -110 c13 -90 17 -104 22 -75 7 37 27 175 27 184 0 3 50 6 110 6
l110 0 0 -40 c0 -39 -1 -40 -35 -40 -35 0 -35 0 -35 -45 0 -45 0 -45 36 -45
l35 0 -3 -42 c-3 -41 -5 -43 -36 -46 -32 -3 -33 -4 -30 -45 3 -39 5 -42 36
-45 30 -3 32 -6 32 -43 l0 -39 -75 0 -75 0 -1 163 -1 162 -26 -160 -27 -160
-46 -3 -47 -3 -11 63 c-6 35 -14 84 -17 111 -4 26 -9 47 -13 47 -3 0 -15 -12
-25 -27 -19 -26 -19 -27 2 -99 12 -41 22 -78 22 -84 0 -7 -15 -10 -37 -8 -38
3 -38 4 -57 71 -11 37 -23 67 -28 67 -4 0 -8 -32 -8 -70 l0 -71 -72 3 c-72 3
-73 3 -78 33 -4 23 -11 31 -32 33 -24 3 -27 -1 -30 -30 l-3 -33 -77 -3 -78 -3
-1 73 c-1 75 -5 69 -23 -35 -6 -32 -11 -38 -29 -35 -18 2 -24 13 -33 58 l-11
55 -4 -55 -4 -55 -40 0 -40 0 -3 213 -2 212 53 0 54 0 13 -90z m1000 -85 l0
-175 29 0 c26 0 29 -4 33 -35 2 -20 2 -38 -1 -40 -2 -3 -35 -5 -73 -5 l-68 0
0 215 0 215 40 0 40 0 0 -175z"/>
<path d="M5307 423 c-10 -9 -8 -123 1 -123 18 0 42 38 42 67 0 30 -30 69 -43
56z"/>
<path d="M5110 318 c0 -20 -3 -50 -6 -67 -6 -26 -3 -31 13 -31 18 0 19 5 12
61 -8 69 -19 90 -19 37z"/>
</g>
</svg>
